<mxfile host="65bd71144e">
    <diagram id="BgTQnnzX-4dHzKqA9kwq" name="Page-1">
        <mxGraphModel dx="2073" dy="1013" grid="1" gridSize="10" guides="1" tooltips="1" connect="1" arrows="1" fold="1" page="1" pageScale="1" pageWidth="1654" pageHeight="2336" math="0" shadow="0">
            <root>
                <mxCell id="0"/>
                <mxCell id="1" parent="0"/>
                <mxCell id="60" value="" style="rounded=1;whiteSpace=wrap;html=1;labelBackgroundColor=none;fontSize=40;strokeWidth=3;dashed=1;" parent="1" vertex="1">
                    <mxGeometry x="100" y="40" width="1436.25" height="1040" as="geometry"/>
                </mxCell>
                <mxCell id="91" style="edgeStyle=orthogonalEdgeStyle;curved=1;html=1;exitX=0.5;exitY=1;exitDx=0;exitDy=0;entryX=0.5;entryY=0;entryDx=0;entryDy=0;strokeWidth=5;fontSize=100;" edge="1" parent="1" source="10" target="63">
                    <mxGeometry relative="1" as="geometry"/>
                </mxCell>
                <mxCell id="10" value="START OF FRAME" style="rounded=0;whiteSpace=wrap;html=1;fontSize=32;fillColor=#60a917;fontColor=#ffffff;strokeColor=#2D7600;strokeWidth=3;" parent="1" vertex="1">
                    <mxGeometry x="310" y="280" width="357.5" height="40" as="geometry"/>
                </mxCell>
                <mxCell id="58" value="&lt;font style=&quot;font-size: 49px;&quot;&gt;UART DATA PACKET STRUCTURE&lt;/font&gt;" style="text;strokeColor=none;fillColor=none;html=1;fontSize=24;fontStyle=1;verticalAlign=middle;align=center;rounded=1;" parent="1" vertex="1">
                    <mxGeometry x="320" y="60" width="1050" height="100" as="geometry"/>
                </mxCell>
                <mxCell id="59" value="&lt;p style=&quot;line-height: 100%;&quot;&gt;&lt;font style=&quot;font-size: 40px;&quot;&gt;Navneet Singh&amp;nbsp;&lt;/font&gt;&lt;/p&gt;" style="text;html=1;strokeColor=none;fillColor=none;align=center;verticalAlign=middle;whiteSpace=wrap;rounded=0;labelBackgroundColor=none;fontSize=49;" parent="1" vertex="1">
                    <mxGeometry x="1110" y="970" width="354" height="95" as="geometry"/>
                </mxCell>
                <mxCell id="71" style="edgeStyle=none;html=1;exitX=0.5;exitY=1;exitDx=0;exitDy=0;entryX=0.5;entryY=0;entryDx=0;entryDy=0;fontSize=100;strokeWidth=5;" edge="1" parent="1" source="63" target="64">
                    <mxGeometry relative="1" as="geometry"/>
                </mxCell>
                <mxCell id="63" value="Channel1_0_MSB(15-8)" style="rounded=0;whiteSpace=wrap;html=1;fontSize=32;fillColor=#a20025;fontColor=#ffffff;strokeColor=#6F0000;strokeWidth=3;" vertex="1" parent="1">
                    <mxGeometry x="310" y="360" width="357.5" height="40" as="geometry"/>
                </mxCell>
                <mxCell id="75" style="edgeStyle=none;html=1;exitX=0.5;exitY=1;exitDx=0;exitDy=0;entryX=0.5;entryY=0;entryDx=0;entryDy=0;strokeWidth=5;fontSize=100;" edge="1" parent="1" source="64" target="65">
                    <mxGeometry relative="1" as="geometry"/>
                </mxCell>
                <mxCell id="64" value="Channel1_1_LSB(7-0)" style="rounded=0;whiteSpace=wrap;html=1;fontSize=32;fillColor=#a20025;fontColor=#ffffff;strokeColor=#6F0000;strokeWidth=3;" vertex="1" parent="1">
                    <mxGeometry x="310" y="440" width="357.5" height="40" as="geometry"/>
                </mxCell>
                <mxCell id="76" style="edgeStyle=none;html=1;exitX=0.5;exitY=1;exitDx=0;exitDy=0;entryX=0.5;entryY=0;entryDx=0;entryDy=0;strokeWidth=5;fontSize=100;" edge="1" parent="1" source="65" target="66">
                    <mxGeometry relative="1" as="geometry"/>
                </mxCell>
                <mxCell id="65" value="Channel2_0_MSB(15-8)" style="rounded=0;whiteSpace=wrap;html=1;fontSize=32;fillColor=#CCCC00;fontColor=#ffffff;strokeColor=#6F0000;strokeWidth=3;" vertex="1" parent="1">
                    <mxGeometry x="310" y="520" width="357.5" height="40" as="geometry"/>
                </mxCell>
                <mxCell id="77" style="edgeStyle=none;html=1;exitX=0.5;exitY=1;exitDx=0;exitDy=0;entryX=0.5;entryY=0;entryDx=0;entryDy=0;strokeWidth=5;fontSize=100;" edge="1" parent="1" source="66" target="67">
                    <mxGeometry relative="1" as="geometry"/>
                </mxCell>
                <mxCell id="66" value="Channel2_1_LSB(7-0)" style="rounded=0;whiteSpace=wrap;html=1;fontSize=32;fillColor=#CCCC00;fontColor=#ffffff;strokeColor=#6F0000;strokeWidth=3;" vertex="1" parent="1">
                    <mxGeometry x="310" y="600" width="357.5" height="40" as="geometry"/>
                </mxCell>
                <mxCell id="78" style="edgeStyle=none;html=1;exitX=0.5;exitY=1;exitDx=0;exitDy=0;entryX=0.5;entryY=0;entryDx=0;entryDy=0;strokeWidth=5;fontSize=100;" edge="1" parent="1" source="67" target="68">
                    <mxGeometry relative="1" as="geometry"/>
                </mxCell>
                <mxCell id="67" value="Channel3_0_MSB(15-8)" style="rounded=0;whiteSpace=wrap;html=1;fontSize=32;fillColor=#a20025;fontColor=#ffffff;strokeColor=#6F0000;strokeWidth=3;" vertex="1" parent="1">
                    <mxGeometry x="310" y="680" width="357.5" height="40" as="geometry"/>
                </mxCell>
                <mxCell id="79" style="edgeStyle=orthogonalEdgeStyle;html=1;exitX=0.5;exitY=1;exitDx=0;exitDy=0;strokeWidth=5;fontSize=100;curved=1;entryX=0.5;entryY=0;entryDx=0;entryDy=0;" edge="1" parent="1" source="68" target="69">
                    <mxGeometry relative="1" as="geometry">
                        <mxPoint x="745.5401320684524" y="570" as="targetPoint"/>
                        <Array as="points">
                            <mxPoint x="488.5" y="930"/>
                            <mxPoint x="797.5" y="930"/>
                            <mxPoint x="797.5" y="280"/>
                            <mxPoint x="1050.5" y="280"/>
                        </Array>
                    </mxGeometry>
                </mxCell>
                <mxCell id="68" value="Channel3_1_LSB(7-0)" style="rounded=0;whiteSpace=wrap;html=1;fontSize=32;fillColor=#a20025;fontColor=#ffffff;strokeColor=#6F0000;strokeWidth=3;" vertex="1" parent="1">
                    <mxGeometry x="310" y="760" width="357.5" height="40" as="geometry"/>
                </mxCell>
                <mxCell id="80" style="edgeStyle=orthogonalEdgeStyle;curved=1;html=1;exitX=0.5;exitY=1;exitDx=0;exitDy=0;entryX=0.5;entryY=0;entryDx=0;entryDy=0;strokeWidth=5;fontSize=100;" edge="1" parent="1" source="69" target="70">
                    <mxGeometry relative="1" as="geometry"/>
                </mxCell>
                <mxCell id="69" value="Channel4_0_MSB(15-8)" style="rounded=0;whiteSpace=wrap;html=1;fontSize=32;fillColor=#CCCC00;fontColor=#ffffff;strokeColor=#6F0000;strokeWidth=3;" vertex="1" parent="1">
                    <mxGeometry x="872" y="360" width="357.5" height="40" as="geometry"/>
                </mxCell>
                <mxCell id="85" style="edgeStyle=orthogonalEdgeStyle;curved=1;html=1;exitX=0.5;exitY=1;exitDx=0;exitDy=0;entryX=0.5;entryY=0;entryDx=0;entryDy=0;strokeWidth=5;fontSize=100;" edge="1" parent="1" source="70" target="81">
                    <mxGeometry relative="1" as="geometry"/>
                </mxCell>
                <mxCell id="70" value="Channel4_1_LSB(7-0)" style="rounded=0;whiteSpace=wrap;html=1;fontSize=32;fillColor=#CCCC00;fontColor=#ffffff;strokeColor=#6F0000;strokeWidth=3;" vertex="1" parent="1">
                    <mxGeometry x="872" y="440" width="357.5" height="40" as="geometry"/>
                </mxCell>
                <mxCell id="86" style="edgeStyle=orthogonalEdgeStyle;curved=1;html=1;exitX=0.5;exitY=1;exitDx=0;exitDy=0;entryX=0.5;entryY=0;entryDx=0;entryDy=0;strokeWidth=5;fontSize=100;" edge="1" parent="1" source="81" target="82">
                    <mxGeometry relative="1" as="geometry"/>
                </mxCell>
                <mxCell id="81" value="Channel5_0_MSB(15-8)" style="rounded=0;whiteSpace=wrap;html=1;fontSize=32;fillColor=#a20025;fontColor=#ffffff;strokeColor=#6F0000;strokeWidth=3;" vertex="1" parent="1">
                    <mxGeometry x="872" y="520" width="357.5" height="40" as="geometry"/>
                </mxCell>
                <mxCell id="87" style="edgeStyle=orthogonalEdgeStyle;curved=1;html=1;exitX=0.5;exitY=1;exitDx=0;exitDy=0;entryX=0.5;entryY=0;entryDx=0;entryDy=0;strokeWidth=5;fontSize=100;" edge="1" parent="1" source="82" target="83">
                    <mxGeometry relative="1" as="geometry"/>
                </mxCell>
                <mxCell id="82" value="Channel5_1_LSB(7-0)" style="rounded=0;whiteSpace=wrap;html=1;fontSize=32;fillColor=#a20025;fontColor=#ffffff;strokeColor=#6F0000;strokeWidth=3;" vertex="1" parent="1">
                    <mxGeometry x="872" y="600" width="357.5" height="40" as="geometry"/>
                </mxCell>
                <mxCell id="88" style="edgeStyle=orthogonalEdgeStyle;curved=1;html=1;exitX=0.5;exitY=1;exitDx=0;exitDy=0;entryX=0.5;entryY=0;entryDx=0;entryDy=0;strokeWidth=5;fontSize=100;" edge="1" parent="1" source="83" target="84">
                    <mxGeometry relative="1" as="geometry"/>
                </mxCell>
                <mxCell id="83" value="Channel4_0_MSB(15-8)" style="rounded=0;whiteSpace=wrap;html=1;fontSize=32;fillColor=#CCCC00;fontColor=#ffffff;strokeColor=#6F0000;strokeWidth=3;" vertex="1" parent="1">
                    <mxGeometry x="872" y="680" width="357.5" height="40" as="geometry"/>
                </mxCell>
                <mxCell id="90" style="edgeStyle=orthogonalEdgeStyle;curved=1;html=1;exitX=0.5;exitY=1;exitDx=0;exitDy=0;entryX=0.5;entryY=0;entryDx=0;entryDy=0;strokeWidth=5;fontSize=100;" edge="1" parent="1" source="84" target="89">
                    <mxGeometry relative="1" as="geometry"/>
                </mxCell>
                <mxCell id="84" value="Channel4_1_LSB(7-0)" style="rounded=0;whiteSpace=wrap;html=1;fontSize=32;fillColor=#CCCC00;fontColor=#ffffff;strokeColor=#6F0000;strokeWidth=3;" vertex="1" parent="1">
                    <mxGeometry x="872" y="760" width="357.5" height="40" as="geometry"/>
                </mxCell>
                <mxCell id="89" value="END OF FRAME" style="rounded=0;whiteSpace=wrap;html=1;fontSize=32;fillColor=#60a917;fontColor=#ffffff;strokeColor=#2D7600;strokeWidth=3;" vertex="1" parent="1">
                    <mxGeometry x="872" y="840" width="357.5" height="40" as="geometry"/>
                </mxCell>
                <mxCell id="92" value="&lt;font style=&quot;font-size: 20px;&quot;&gt;BUS VOLTAGES&lt;/font&gt;" style="text;html=1;strokeColor=none;fillColor=none;align=center;verticalAlign=middle;whiteSpace=wrap;rounded=0;fontSize=100;" vertex="1" parent="1">
                    <mxGeometry x="80" y="390" width="257" as="geometry"/>
                </mxCell>
                <mxCell id="93" value="&lt;font style=&quot;font-size: 20px;&quot;&gt;SHUNT VOLTAGES&lt;/font&gt;" style="text;html=1;strokeColor=none;fillColor=none;align=center;verticalAlign=middle;whiteSpace=wrap;rounded=0;fontSize=100;" vertex="1" parent="1">
                    <mxGeometry x="1230" y="390" width="257" as="geometry"/>
                </mxCell>
            </root>
        </mxGraphModel>
    </diagram>
</mxfile>